<svg xmlns="http://www.w3.org/2000/svg" viewBox="0 0 100 100" fill="none">
  <g fill="#C9191E" fill-rule="evenodd">
    <path d="M30,0 C10,0 0,10 0,30 L0,70 C0,90 10,100 30,100 L70,100 C90,100 100,90 100,70 L100,30 C100,10 90,0 70,0 Z M30,12 L70,12 C82,12 88,15 88,30 L88,70 C88,82 82,88 70,88 L30,88 C18,88 12,82 12,70 L12,30 C12,18 18,12 30,12 Z"/>
    <path d="M40,12 L60,12 L60,25 L75,25 L75,40 L88,40 L88,60 L75,60 L75,75 L60,75 L60,88 L40,88 L40,75 L25,75 L25,60 L12,60 L12,40 L25,40 L25,25 L40,25 Z M50,32 L68,50 L50,68 L32,50 Z"/>
  </g>
</svg>
